<?xml version="1.0" encoding="UTF-8" standalone="no"?>
<!-- Created with Inkscape (http://www.inkscape.org/) -->

<svg
   xmlns:dc="http://purl.org/dc/elements/1.1/"
   xmlns:cc="http://creativecommons.org/ns#"
   xmlns:rdf="http://www.w3.org/1999/02/22-rdf-syntax-ns#"
   xmlns:svg="http://www.w3.org/2000/svg"
   xmlns="http://www.w3.org/2000/svg"
   xmlns:sodipodi="http://sodipodi.sourceforge.net/DTD/sodipodi-0.dtd"
   xmlns:inkscape="http://www.inkscape.org/namespaces/inkscape"
   width="92.882484mm"
   height="80.47789mm"
   viewBox="0 0 92.882484 80.477888"
   version="1.1"
   id="svg8"
   inkscape:version="0.92.3 (2405546, 2018-03-11)"
   sodipodi:docname="noun_imam reza tomb_2102686.svg">
  <defs
     id="defs2">
    <style
       id="style10"
       type="text/css">
   
    .fil0 {fill:black;fill-rule:nonzero}
   
  </style>
    <style
       id="style53"
       type="text/css">
   
    .fil0 {fill:black;fill-rule:nonzero}
   
  </style>
  </defs>
  <sodipodi:namedview
     id="base"
     pagecolor="#ffffff"
     bordercolor="#666666"
     borderopacity="1.0"
     inkscape:pageopacity="0.0"
     inkscape:pageshadow="2"
     inkscape:zoom="0.35"
     inkscape:cx="129.34276"
     inkscape:cy="-80.041846"
     inkscape:document-units="mm"
     inkscape:current-layer="layer1"
     showgrid="false"
     fit-margin-top="0"
     fit-margin-left="0"
     fit-margin-right="0"
     fit-margin-bottom="0"
     inkscape:window-width="1600"
     inkscape:window-height="838"
     inkscape:window-x="-8"
     inkscape:window-y="-8"
     inkscape:window-maximized="1" />
  <metadata
     id="metadata5">
    <rdf:RDF>
      <cc:Work
         rdf:about="">
        <dc:format>image/svg+xml</dc:format>
        <dc:type
           rdf:resource="http://purl.org/dc/dcmitype/StillImage" />
        <dc:title></dc:title>
      </cc:Work>
    </rdf:RDF>
  </metadata>
  <g
     inkscape:label="Layer 1"
     inkscape:groupmode="layer"
     id="layer1"
     transform="translate(-71.611394,-47.177703)">
    <g
       style="clip-rule:evenodd;fill-rule:evenodd;image-rendering:optimizeQuality;shape-rendering:geometricPrecision;text-rendering:geometricPrecision"
       id="g76"
       transform="matrix(1.3813576,0,0,1.3813576,48.984757,18.34877)">
      <g
         id="g59">
        <path
           id="path57"
           d="m 21.04,62.04 c 0,0.3 -0.25,0.55 -0.55,0.55 -0.3,0 -0.55,-0.25 -0.55,-0.55 V 60.68 60.66 60.65 57.59 57.57 57.56 53.5 53.49 50.8 l -0.29,-1 c -0.84,-2.92 -0.2,-5.06 1.23,-6.82 1.38,-1.68 3.49,-2.96 5.69,-4.23 l 5.25,-2.72 v -2.57 -0.02 -3.06 c 0,-0.3 0.24,-0.55 0.55,-0.55 h 0.01 3.77 c 0.31,0 0.55,0.25 0.55,0.55 v 0.7 h 1.66 c 0.31,0 0.55,0.25 0.55,0.55 v 3.07 c 0,0.3 -0.24,0.55 -0.55,0.55 h -3.78 c -0.31,0 -0.55,-0.25 -0.55,-0.55 v -0.71 h -1.11 v 2.04 l 5.26,2.73 c 2.19,1.27 4.29,2.54 5.67,4.23 1.43,1.75 2.07,3.89 1.23,6.81 l -0.29,1 v 2.69 0.01 10.46 h 7.57 V 48.07 c 0,-0.3 0.25,-0.55 0.55,-0.55 h 4.55 0.01 0.02 25.58 c 0.3,0 0.55,0.25 0.55,0.55 v 30.51 c 0,0.31 -0.25,0.55 -0.55,0.55 H 77.03 77.01 77 69.25 c -0.3,0 -0.55,-0.24 -0.55,-0.55 0,-0.3 0.25,-0.55 0.55,-0.55 h 2.64 c 0,-4.2 -0.11,-8.51 0.03,-12.7 0.04,-1.19 -0.13,-2.09 -0.48,-2.81 -0.34,-0.71 -0.88,-1.27 -1.6,-1.8 -0.25,-0.18 -0.3,-0.52 -0.12,-0.77 0.18,-0.24 0.52,-0.29 0.77,-0.12 0.86,0.63 1.51,1.32 1.94,2.21 0.43,0.88 0.63,1.95 0.58,3.32 C 72.87,69.53 73,73.85 73,78.03 h 3.46 c -0.01,-4.21 -0.12,-8.52 0.02,-12.7 0.05,-1.48 -0.21,-2.5 -0.76,-3.31 -0.55,-0.81 -1.42,-1.44 -2.57,-2.11 l -2.88,-1.49 -2.87,1.49 c -1.15,0.67 -2.03,1.3 -2.58,2.11 -0.55,0.81 -0.81,1.83 -0.76,3.31 0.14,4.36 0.02,8.86 0.02,13.24 v 0.01 c 0,0.31 -0.24,0.55 -0.55,0.55 H 63.52 57.48 57.46 51.52 51.51 47.14 47.12 41.18 41.17 36.8 36.78 30.84 30.83 26.45 26.44 20.5 20.49 16.93 c -0.3,0 -0.55,-0.24 -0.55,-0.55 0,-0.3 0.25,-0.55 0.55,-0.55 h 3.02 c 0.01,-1.8 0.06,-3.66 0,-5.45 -0.03,-0.85 0.13,-1.46 0.46,-1.97 l 0.02,-0.03 c 0.33,-0.47 0.79,-0.82 1.38,-1.17 l 1.4,-0.75 c 0.17,-0.09 0.36,-0.09 0.52,0 l 1.41,0.75 c 0.6,0.36 1.06,0.71 1.39,1.21 0.33,0.5 0.49,1.11 0.47,1.96 l -0.01,0.27 v 5.18 h 3.3 c 0.01,-1.8 0.05,-3.66 0,-5.45 -0.03,-0.85 0.13,-1.46 0.46,-1.97 l 0.03,-0.03 c 0.32,-0.47 0.78,-0.82 1.37,-1.17 l 1.4,-0.75 c 0.17,-0.09 0.36,-0.09 0.52,0 l 1.41,0.75 c 0.6,0.36 1.07,0.71 1.39,1.21 0.33,0.5 0.49,1.11 0.47,1.96 l -0.01,0.27 v 5.18 h 3.3 c 0.01,-1.8 0.05,-3.66 0,-5.45 -0.03,-0.85 0.13,-1.46 0.46,-1.97 l 0.03,-0.03 c 0.32,-0.47 0.78,-0.82 1.37,-1.17 l 1.4,-0.75 c 0.17,-0.09 0.37,-0.09 0.52,0 l 1.41,0.75 c 0.6,0.36 1.07,0.71 1.39,1.21 0.33,0.5 0.49,1.11 0.47,1.96 l -0.01,0.27 v 5.18 h 3.31 c 0.01,-1.8 0.05,-3.66 -0.01,-5.45 -0.03,-0.85 0.13,-1.46 0.47,-1.97 l 0.02,-0.03 c 0.32,-0.47 0.78,-0.82 1.37,-1.17 l 1.41,-0.75 c 0.16,-0.09 0.36,-0.09 0.51,0 l 1.41,0.75 c 0.6,0.36 1.07,0.71 1.39,1.21 0.33,0.5 0.5,1.11 0.47,1.96 l -0.01,0.27 v 5.18 h 4.97 c 0.01,-4.19 0.12,-8.5 -0.01,-12.67 -0.06,-1.73 0.27,-2.95 0.95,-3.95 0.67,-0.99 1.65,-1.71 2.94,-2.45 l 3.16,-1.65 c 0.16,-0.08 0.35,-0.07 0.5,0 l 3.18,1.65 c 1.28,0.74 2.26,1.47 2.93,2.45 0.68,1 1,2.23 0.95,3.95 l -0.02,0.6 v 12.07 h 4.96 v -29.4 h -24.5 v 15.88 c 0,0.3 -0.24,0.55 -0.55,0.55 h -0.01 -4.54 -0.01 -0.02 -8.63 -0.02 -0.01 -27.3 c -0.3,0 -0.55,-0.25 -0.55,-0.55 0,-0.3 0.25,-0.55 0.55,-0.55 H 43.69 V 54.04 H 21.04 v 2.98 h 1.06 c 0.16,0 0.31,0.08 0.41,0.19 l 1.52,1.52 c 0.21,0.21 0.21,0.56 0,0.77 l -1.54,1.55 c -0.11,0.11 -0.25,0.16 -0.39,0.16 h -1.06 z m 32.42,1.92 h 3.46 V 48.63 h -3.46 z m 8.22,-6.24 c 0,0.3 -0.25,0.55 -0.55,0.55 -0.31,0 -0.55,-0.25 -0.55,-0.55 v -6.34 c 0,-0.3 0.24,-0.55 0.55,-0.55 h 18.29 c 0.3,0 0.55,0.25 0.55,0.55 v 6.34 c 0,0.3 -0.25,0.55 -0.55,0.55 -0.31,0 -0.55,-0.25 -0.55,-0.55 V 51.93 H 61.68 Z m 5.63,20.31 c 0.31,0 0.55,0.25 0.55,0.55 0,0.31 -0.24,0.55 -0.55,0.55 h -0.45 c -0.3,0 -0.55,-0.24 -0.55,-0.55 0,-0.3 0.25,-0.55 0.55,-0.55 z M 21.04,58.12 v 1.99 h 0.83 l 1,-0.99 -1,-1 z m 8.41,-1.1 h 3.05 l 1.41,-0.9 c 0.19,-0.12 0.42,-0.11 0.59,0 l 1.41,0.9 h 3.05 c 0.17,0 0.32,0.08 0.42,0.19 l 1.51,1.52 c 0.22,0.21 0.22,0.56 0,0.77 l -1.54,1.55 c -0.11,0.11 -0.25,0.16 -0.39,0.16 h -3.05 l -1.41,0.91 c -0.18,0.12 -0.42,0.11 -0.59,0 L 32.5,61.21 h -3.05 c -0.15,0 -0.29,-0.06 -0.39,-0.16 l -1.54,-1.54 c -0.22,-0.22 -0.22,-0.57 0,-0.78 l 1.54,-1.54 c 0.11,-0.11 0.25,-0.16 0.39,-0.17 z m 3.21,1.1 h -2.99 l -0.99,1 1,0.99 h 2.98 c 0.1,0 0.21,0.03 0.3,0.09 l 1.24,0.8 1.22,-0.78 c 0.09,-0.07 0.21,-0.11 0.33,-0.11 h 2.99 l 0.99,-0.99 -0.99,-1 h -2.99 c -0.1,0 -0.2,-0.03 -0.3,-0.08 l -1.25,-0.81 -1.21,0.79 c -0.09,0.06 -0.21,0.1 -0.33,0.1 z M 54.54,39.18 h -4.89 c -0.3,0 -0.55,-0.25 -0.55,-0.55 0,-0.3 0.25,-0.55 0.55,-0.55 H 55 v -4.61 h -7.27 v 5 l 1.58,2.44 h 1.08 c 0.3,0 0.55,0.24 0.55,0.55 0,0.3 -0.25,0.55 -0.55,0.55 h -0.84 l -0.07,1.64 h 3.82 l -0.07,-2.04 c -0.07,-0.16 -0.05,-0.34 0.05,-0.5 z M 43.69,52.94 V 51.28 H 21.04 v 1.66 z m 0.14,-2.76 0.2,-0.68 C 44.75,46.99 44.21,45.17 43,43.68 41.74,42.14 39.74,40.92 37.63,39.71 l -5.26,-2.73 -5.28,2.73 c -2.1,1.21 -4.09,2.43 -5.36,3.97 -1.21,1.48 -1.74,3.31 -1.02,5.82 l 0.19,0.68 z m 7.16,4.13 c 0.3,0 0.55,0.25 0.55,0.55 0,0.31 -0.25,0.55 -0.55,0.55 h -1.97 l -0.26,6.67 c -0.02,0.31 -0.27,0.54 -0.57,0.53 -0.31,-0.01 -0.54,-0.27 -0.53,-0.57 l 0.8,-20.43 -1.72,-2.64 v -0.01 c -0.07,-0.09 -0.11,-0.21 -0.11,-0.33 v -5.16 h -0.5 c -0.31,0 -0.55,-0.25 -0.55,-0.55 0,-0.3 0.24,-0.55 0.55,-0.55 h 1.03 0.02 0.01 2.02 l 0.26,-6.46 c 0,-0.52 0.21,-0.99 0.56,-1.33 0.21,-0.22 0.48,-0.38 0.78,-0.48 v -2.68 c 0,-0.31 0.25,-0.55 0.55,-0.55 0.31,0 0.55,0.24 0.55,0.55 v 2.69 c 0.3,0.09 0.57,0.25 0.79,0.47 0.34,0.34 0.55,0.81 0.55,1.33 l 0.27,6.46 h 2.01 0.02 0.01 1.04 c 0.3,0 0.55,0.25 0.55,0.55 0,0.3 -0.25,0.55 -0.55,0.55 h -0.5 v 5.15 0.01 0.01 0 0 0.01 0 0.01 0 0 0.01 0 0.01 0 0 l -0.01,0.01 v 0 0.01 0 0.01 0 0 0.01 0 0.01 0 0 0 0.01 0 0.01 h -0.01 v 0 0.01 0 0.01 0 0 0 0.01 0 0.01 h -0.01 v 0 0 0.01 0 0.01 0 0 0.01 0 h -0.01 v 0.01 0 0 0.01 h -0.01 v 0 0.01 0 0.01 0 h -0.01 v 0.01 0 0.01 0 0 l -0.01,0.01 v 0 0 0.01 0 h -0.01 v 0 0.01 0 0 0.01 0 h -0.01 v 0 0.01 0 L 56,38.94 v 0 0 0 0.01 0 h -0.01 v 0.01 0 0 h -0.01 v 0.01 l -1.66,2.56 0.16,4.26 c 0.01,0.31 -0.23,0.56 -0.53,0.57 -0.31,0.01 -0.56,-0.23 -0.57,-0.53 l -0.04,-1.08 h -3.9 l -0.27,6.8 h 1.82 c 0.3,0 0.55,0.25 0.55,0.55 0,0.31 -0.25,0.55 -0.55,0.55 h -1.86 l -0.07,1.66 z m 0.41,-29.19 -0.04,0.01 -0.03,-0.01 c -0.21,0.01 -0.39,0.1 -0.52,0.23 -0.15,0.15 -0.24,0.35 -0.24,0.56 v 0.07 l -0.26,6.2 h 2.1 l -0.26,-6.27 c 0,-0.21 -0.09,-0.41 -0.23,-0.56 -0.14,-0.13 -0.32,-0.22 -0.52,-0.23 z m 1.51,9.73 c 0,-0.3 0.24,-0.55 0.55,-0.55 0.3,0 0.55,0.25 0.55,0.55 v 1.89 c 0,0.3 -0.25,0.55 -0.55,0.55 -0.31,0 -0.55,-0.25 -0.55,-0.55 z m -2.1,0 c 0,-0.3 0.25,-0.55 0.55,-0.55 0.31,0 0.55,0.25 0.55,0.55 v 1.89 c 0,0.3 -0.24,0.55 -0.55,0.55 -0.3,0 -0.55,-0.25 -0.55,-0.55 z m -2.09,0 c 0,-0.3 0.24,-0.55 0.55,-0.55 0.3,0 0.55,0.25 0.55,0.55 v 1.89 c 0,0.3 -0.25,0.55 -0.55,0.55 -0.31,0 -0.55,-0.25 -0.55,-0.55 z M 35.13,33.46 v 0.69 h 2.68 V 32.19 H 36.7 v 0.53 c 0,0.3 -0.24,0.55 -0.55,0.55 -0.3,0 -0.55,-0.25 -0.55,-0.55 v -1.07 -0.02 -0.01 -0.69 h -2.68 v 1.96 h 1.64 0.02 c 0.3,0 0.55,0.25 0.55,0.55 z m -6.98,9.01 c -0.26,0.14 -0.6,0.05 -0.74,-0.22 -0.15,-0.26 -0.05,-0.6 0.22,-0.74 l 0.52,-0.29 c 0.26,-0.15 0.6,-0.05 0.74,0.21 0.15,0.27 0.05,0.6 -0.21,0.75 z m -4.43,4.94 c 0,0.31 -0.25,0.55 -0.55,0.55 -0.31,0 -0.56,-0.24 -0.56,-0.55 0,-1.4 0.27,-2.28 0.82,-2.99 0.53,-0.69 1.29,-1.15 2.31,-1.74 0.26,-0.15 0.59,-0.06 0.75,0.2 0.15,0.26 0.06,0.6 -0.21,0.75 -0.9,0.53 -1.58,0.93 -1.98,1.46 -0.39,0.5 -0.58,1.19 -0.58,2.32 z m 0.86,22.94 -1.11,-0.59 -1.11,0.59 c -0.46,0.28 -0.8,0.53 -1.02,0.84 l -0.01,0.03 c -0.21,0.31 -0.31,0.73 -0.29,1.33 0.06,1.81 0.01,3.67 0.01,5.48 h 4.84 c 0,-1.81 -0.05,-3.67 0.01,-5.48 0.02,-0.6 -0.08,-1.02 -0.29,-1.33 -0.21,-0.32 -0.56,-0.59 -1.03,-0.87 z m 10.34,0 -1.11,-0.59 -1.11,0.59 c -0.45,0.28 -0.8,0.53 -1.02,0.84 l -0.01,0.03 c -0.21,0.31 -0.31,0.73 -0.29,1.33 0.06,1.81 0.01,3.67 0.01,5.48 h 4.84 c 0,-1.81 -0.04,-3.67 0.01,-5.48 0.02,-0.6 -0.08,-1.02 -0.28,-1.33 -0.22,-0.32 -0.57,-0.59 -1.04,-0.87 z m 10.34,0 -1.11,-0.59 -1.11,0.59 c -0.45,0.28 -0.8,0.53 -1.01,0.84 l -0.02,0.03 c -0.21,0.31 -0.31,0.73 -0.29,1.33 0.06,1.81 0.01,3.67 0.01,5.48 h 4.84 c 0,-1.81 -0.04,-3.67 0.01,-5.48 0.02,-0.6 -0.08,-1.02 -0.28,-1.33 -0.22,-0.32 -0.57,-0.59 -1.04,-0.87 z m 10.34,0 -1.11,-0.59 -1.1,0.59 c -0.46,0.28 -0.81,0.53 -1.02,0.84 l -0.02,0.03 c -0.21,0.31 -0.31,0.73 -0.29,1.33 0.06,1.81 0.02,3.67 0.02,5.48 h 4.83 c 0,-1.81 -0.05,-3.67 0.01,-5.48 0.02,-0.6 -0.08,-1.02 -0.28,-1.33 C 56.43,70.9 56.07,70.63 55.6,70.35 Z M 38.18,38.76 c 0.25,0.15 0.34,0.46 0.2,0.72 z"
           class="fil0"
           inkscape:connector-curvature="0"
           style="fill:#000000;fill-rule:nonzero" />
      </g>
    </g>
  </g>
</svg>
